<?xml version="1.0" encoding="UTF-8"?>
<svg id="Layer_1" xmlns="http://www.w3.org/2000/svg" version="1.1" viewBox="0 0 500 500">
  <defs>
    <style>
      .st0 {
        display: none;
        opacity: .2;
      }

      .st1 {
        fill: #29222b;
      }
    </style>
  </defs>
  <g class="st0">
    <polygon points="412.8 634.2 499 606.9 499.3 634.2 412.8 634.2"/>
    <path d="M286.4,277.1c5.1-.5,12.5-2.5,17.4-4.4,22-8.8,34.6-32.3,45.3-52.1,13.6,57.6-14.5,121.2-73.8,137.5-33.4,9.2-68.2,2.8-95.5-18.6-4.2-3.3-7.6-7.3-11.6-10.8s-.4-.7-1.4-.4c0,11.6-8,24-18.9,27.8-25.3,8.9-36.9-18.8-21-36.7,6.8-7.6,16.2-10.4,26.2-9.5.4-.4-4.5-8.4-5.1-9.5-28.4-59.9-.4-135.6,62.7-158.1,9.4-3.4,18.9-5.1,28.7-6.7,43.6-7.2,87.8-11.2,131.4-18.5l-194.9,193.6c-.5.5-.3.8,0,1.4.5.9,7.5,7.7,8.9,8.9,42.3,37.6,109.9,29.6,138.1-20.7.7-1.2,9.5-19.7,7-18.9-16,11-39.9,10.3-53.5-4.1,3.2-.2,6.7.3,9.9,0ZM322.9,141.5c-33.4,5.2-67.3,8.2-100.4,15-54.9,14.8-81.7,78.3-61.4,130.1.7,1.8,4.2,11.1,6.4,10.2l155.4-155.3ZM148.3,338.8c2.9-3.1,4.5-11.7-.8-12.7-12.3-2.3-16.8,15.6-6.1,15.7s5.3-1.3,6.9-3Z"/>
  </g>
  <path class="st1" d="M857.1,225.9h0c-2.6-2.8-5.5-5.3-8.7-7.4,5.1,8.1,8,17.7,8,28s-4.3,23.9-11.5,32.9c-9.6,12.1-24.5,19.8-41.1,19.8s-19.1-2.7-27-7.4c9.4,13.2,24.9,21.8,42.3,21.8s13.6-1.4,19.7-3.9c-13.2,33.8-46.1,57.7-84.5,57.7s-7.9-.3-11.8-.8c-22.8-3-42.9-14.4-57.1-31l2.2-2.2,67.2-67.5,13.1-13.1h0s42.3-42.5,42.3-42.5l2.8-2.8,10-10,7.6-7.7.4-.4,29-29.1,19.4-19.5h0c0,0-25.8,3.8-25.8,3.8l-107.6,16.2c2.9-.2,5.9-.4,8.9-.4,15.7,0,30.6,3.2,44.1,9h0l35-5.3-15.8,15.8h0c0,0-13.7,13.8-13.7,13.8l-4.4,4.4-48.8,49.1-72.9,73.3-2,2.1c-7.8-13.1-12.3-28.4-12.5-44.6-.4-3.6-.6-7.2-.6-10.9,0-34.7,17.3-65.3,43.8-83.7l-24.8,3.7c-24.4,20.7-39.9,51.5-39.9,86s7,44.6,18.9,62.5c-3.2-1.3-6.8-1.8-10.5-1.4-10.3,1.1-18.7,9.4-19.7,19.8-1.5,14.7,11.3,27,26.2,24.4,11-1.9,18.9-12.1,18.3-23.3,0-.9-.1-1.7-.3-2.5,20.4,20.5,48.6,33.2,79.9,33.2,59.3,0,108-45.9,112.3-104.1.2-2.8.3-5.7.3-8.5,0-4.1-.2-8.2-.7-12.2-1.3-12.4-4.7-24.1-9.7-34.9ZM659.8,358.9c-.6,3.1-3,5.5-6.1,6.1-5.5,1-10.2-3.7-9.2-9.2.6-3.1,3.1-5.5,6.1-6.1,5.5-1,10.2,3.7,9.2,9.2Z"/>
  <path d="M422.3,172c-1.3-5.2-3.9-7.8-7.8-7.8h-5s-.9,4.9-.9,4.9c-8.1,42.1-38.3,80.1-82.9,104.3l-17.5,9.5,19.8,1.7c18.9,1.7,37.5-1.7,55.1-6.3-6.9,36.3-28.1,67.4-59.2,86.4-33.4,20.4-74.3,24.1-112.1,10.2-3.5-1.3-7.1-3.1-11-5-6.3-3.1-13.3-6.5-20.6-8L473.1,63.1l-16.2,1.1c-12.8.9-13.7.9-18.4,1h-1.7c-24.8.5-50.7,0-75.7-.6-36.3-.8-73.8-1.5-109.4.6-57,3.3-108.9,31.2-142.4,76.6-15.6,21.2-26.3,44.8-31.7,70.1-5.7,26.6-5.2,53.9,1.5,81,2.1,8.8,5.1,16.4,8,23.8,6.5,16.8,11.7,30,4.8,49.6-9,25.6-30.6,43-51.5,59.8l-13.5,10.9h58.5c4.8,0,11.2-.4,14.5-2.2,5.3-2.9,10.7-6.1,15.9-9.2,10.7-6.3,21.8-12.9,32.5-17.2,12-4.7,18-1.7,28.1,3.4,3.3,1.7,7,3.5,11.1,5.2,53.9,21.7,112.5,17.4,160.8-11.8,48.3-29.2,79.3-79.2,85.1-137,3-30-1.1-65.8-11-95.6,0-.1,0-.3-.1-.5ZM140.7,334.6c-5.3-9.8-7.5-15.1-10.2-33.8s-5.8-17.2-7.5-27.6c-6.3-39.4,3.5-77.8,27.9-108.1,24.5-30.5,60.1-48.6,100.4-51h104.3c-6.5,7.1-14.8,14.6-22.9,22-5.4,4.9-10.5,9.5-14.8,13.8l-177.1,184.7Z"/>
</svg>